<svg width="200" height="197" viewBox="0 0 200 197" fill="none" xmlns="http://www.w3.org/2000/svg">
<path d="M174.964 188.555H25.0358C15.5937 188.555 7.86838 180.83 7.86838 171.388V25.0358C7.86838 15.5937 15.5937 7.86838 25.0358 7.86838H174.964C184.406 7.86838 192.132 15.5937 192.132 25.0358V171.531C192.132 180.83 184.406 188.555 174.964 188.555Z" fill="#B3B3B3"/>
<path d="M174.964 196.423H25.0358C11.3019 196.423 0 185.122 0 171.388V25.0358C0 11.3019 11.3019 0 25.0358 0H174.964C188.698 0 200 11.3019 200 25.0358V171.531C200 185.265 188.698 196.423 174.964 196.423ZM25.0358 15.7368C19.8856 15.7368 15.7368 19.8855 15.7368 25.0358V171.531C15.7368 176.681 19.8856 180.83 25.0358 180.83H174.964C180.114 180.83 184.263 176.681 184.263 171.531V25.0358C184.263 19.8855 180.114 15.7368 174.964 15.7368H25.0358Z" fill="black"/>
<path d="M12.3032 187.983C11.4449 187.983 10.4434 187.697 9.72813 187.268C7.43915 185.837 6.58078 182.69 8.15445 180.401L36.7668 134.192C38.1974 131.903 41.3447 131.187 43.6337 132.618C45.9227 134.049 46.7811 137.196 45.2074 139.485L16.5951 185.694C15.5937 187.124 14.02 187.983 12.3032 187.983Z" fill="black"/>
<path d="M186.266 184.12C184.549 184.12 182.976 183.262 182.117 181.831L154.936 139.485C153.505 137.196 154.077 134.049 156.366 132.618C158.655 131.187 161.803 131.76 163.233 134.049L190.415 176.395C191.846 178.684 191.273 181.831 188.984 183.262C188.126 183.834 187.124 184.12 186.266 184.12Z" fill="black"/>
<path d="M38.0544 26.7525C37.0529 26.7525 36.1946 26.6094 35.1931 26.1803L18.0257 19.4564C14.02 17.8827 12.0172 13.3047 13.5908 9.299C15.1645 5.29328 19.7425 3.29042 23.7482 4.86409L40.9156 11.588C44.9213 13.1617 46.9242 17.7396 45.3505 21.7454C44.0629 24.8927 41.0587 26.7525 38.0544 26.7525Z" fill="black"/>
<path d="M159.943 25.3219C156.795 25.3219 153.791 23.4621 152.647 20.3147C151.073 16.309 153.076 11.731 157.082 10.1574L176.681 2.43203C180.687 0.858358 185.265 2.86122 186.838 6.86694C188.412 10.8727 186.409 15.4506 182.403 17.0243L162.804 24.7496C161.803 25.1788 160.944 25.3219 159.943 25.3219Z" fill="black"/>
<path d="M147.783 145.35H52.2175C42.7754 145.35 35.0501 137.625 35.0501 128.183V32.7611C35.0501 23.319 42.7754 15.5937 52.2175 15.5937H147.783C157.225 15.5937 164.95 23.319 164.95 32.7611V128.326C164.95 137.625 157.225 145.35 147.783 145.35Z" fill="white"/>
<path d="M85.8369 51.7882V50.9299C85.8369 50.0715 85.2647 49.3562 84.2632 49.3562H59.6566C55.937 49.3562 54.0772 46.495 54.0772 43.9199C54.0772 41.3447 55.794 38.4835 59.6566 38.4835H88.5551C95.9943 38.4835 98.2832 41.3447 98.2832 47.4964V51.7882C98.2832 60.6581 96.8526 67.9542 94.2775 72.246C92.4177 75.5364 88.5551 76.9671 85.1216 75.5365C82.4034 74.392 81.402 71.1015 82.9757 68.2403C84.9785 64.3777 85.8369 60.2289 85.8369 51.7882Z" fill="black"/>
<path d="M137.482 88.269C141.059 88.269 142.346 90.9871 142.346 93.4192C142.346 95.8512 141.059 98.5694 137.482 98.5694H129.471C128.183 98.5694 127.754 98.9986 127.754 100.286V113.162C127.754 114.449 128.183 114.878 129.471 114.878H138.34C141.917 114.878 143.205 117.597 143.205 120.029C143.205 122.461 141.774 125.179 138.34 125.179H102.575C94.9928 125.179 92.5608 122.747 92.5608 115.451V97.9971C92.5608 90.701 94.9928 88.269 102.575 88.269H137.482ZM107.01 114.878H115.451V98.5694H107.01C105.722 98.5694 105.293 98.9986 105.293 100.286V113.162C105.15 114.449 105.579 114.878 107.01 114.878Z" fill="black"/>
<path d="M147.783 150.358H52.2175C40.0572 150.358 30.0429 140.343 30.0429 128.183V32.7611C30.0429 20.6009 40.0572 10.5865 52.2175 10.5865H147.783C159.943 10.5865 169.957 20.6009 169.957 32.7611V128.326C169.957 140.486 159.943 150.358 147.783 150.358ZM52.2175 20.6009C45.4936 20.6009 40.0572 26.0372 40.0572 32.7611V128.326C40.0572 135.05 45.4936 140.486 52.2175 140.486H147.783C154.506 140.486 159.943 135.05 159.943 128.326V32.7611C159.943 26.0372 154.506 20.6009 147.783 20.6009H52.2175Z" fill="black"/>
<path d="M30.0429 121.888C30.0429 128.183 29.8999 144.921 26.0372 151.216C22.1745 157.511 34.0487 151.788 34.0487 151.788L39.6281 139.342L30.0429 121.888Z" fill="black"/>
<path d="M32.9041 159.084C35.0501 155.508 46.9242 150.358 58.3691 150.358C69.814 150.358 56.5093 145.064 56.5093 145.064L38.6266 144.206L32.9041 159.084Z" fill="black"/>
<path d="M169.957 121.316C169.957 127.611 170.1 144.349 173.963 150.644C177.825 156.938 165.951 151.216 165.951 151.216L160.372 138.77L169.957 121.316Z" fill="black"/>
<path d="M167.239 159.084C165.093 155.508 153.219 150.358 141.774 150.358C130.329 150.358 143.634 145.064 143.634 145.064L161.66 144.206L167.239 159.084Z" fill="black"/>
<path d="M177.396 19.0272C171.817 21.1731 169.957 26.7525 169.957 34.6209C169.957 42.4892 162.232 31.0443 162.232 31.0443L165.665 17.3104L177.396 19.0272Z" fill="black"/>
</svg>
